<?xml version="1.0" encoding="utf-8"?>
<!-- Generator: Adobe Illustrator 21.0.0, SVG Export Plug-In . SVG Version: 6.00 Build 0)  -->
<svg version="1.1" id="Layer_1" xmlns="http://www.w3.org/2000/svg" xmlns:xlink="http://www.w3.org/1999/xlink" x="0px" y="0px"
	 viewBox="0 0 79.4 67.8" style="enable-background:new 0 0 79.4 67.8;" xml:space="preserve">
<style type="text/css">
	.st0{fill:#84FF3F;}
</style>
<g>
	<path d="M71.1,50.8c5.2-5.3,8.3-12.1,8.3-19.4C79.4,14,62.2,0,40.9,0C19.5,0,2.3,14,2.3,31.3c0,6.4,2.4,12.3,6.4,17.3l0,0
		c0,0,0,0,0,0C9,49,9.4,49.5,9.8,49.9c2.2,3,5.8,10.8-9.8,17.8c0,0,34.9,1.7,57.9-8.3c4.1-1.6,7.7-3.8,10.8-6.4
		c0.2-0.2,0.5-0.4,0.7-0.6c0,0,0.1-0.1,0.1-0.1c0.4-0.3,0.7-0.6,1-1c0.1-0.1,0.2-0.2,0.2-0.2C70.9,51,71,50.9,71.1,50.8L71.1,50.8z"
		/>
	<g>
		<path class="st0" d="M48.4,53.9C48.4,53.9,48.4,53.9,48.4,53.9l0-0.1L26.6,13.3l-0.1-0.1c0,0,0,0,0,0c-0.4-0.4-1.2-0.2-1.3,0.5
			c-0.5,4-0.5,7.5-0.2,10.8c0.2,4.1,1.2,8.8,3.8,13.7c2.6,4.9,6,8.4,9.3,10.8c2.5,2,5.5,4,9.1,5.8C47.8,55,48.5,54.5,48.4,53.9z"/>
		<path class="st0" d="M27.5,12.6l5.1,9.5c0.1,0.2,0.4,0.2,0.6,0.1l2.4-1.3c0.2-0.1,0.3-0.4,0.2-0.6l-5.1-9.5
			c-0.1-0.2-0.4-0.2-0.6-0.1L27.7,12C27.5,12.2,27.4,12.4,27.5,12.6z"/>
		<path class="st0" d="M52.7,51.8l-6.6-12.3c-0.1-0.2-0.4-0.2-0.6-0.1l-2.4,1.3c-0.2,0.1-0.3,0.4-0.2,0.6l6.6,12.3
			c0.1,0.2,0.4,0.2,0.6,0.1l2.4-1.3C52.7,52.2,52.8,51.9,52.7,51.8z"/>
	</g>
</g>
</svg>
