<?xml version="1.0" encoding="utf-8"?>
<!-- Generator: Adobe Illustrator 21.0.0, SVG Export Plug-In . SVG Version: 6.00 Build 0)  -->
<svg version="1.1" id="Layer_1" xmlns="http://www.w3.org/2000/svg" xmlns:xlink="http://www.w3.org/1999/xlink" x="0px" y="0px"
	 viewBox="0 0 40.3 40" style="enable-background:new 0 0 40.3 40;" xml:space="preserve">
<style type="text/css">
	.st0{fill:#00D45B;}
</style>
<g>
	<g>
		<path d="M35.2,0H15.7c-2.8,0-5.2,2.3-5.2,5.2v13c0,0.4,0.3,0.7,0.7,0.7H12c0.4,0,0.7-0.3,0.7-0.7V5.4c0-1.8,1.4-3.2,3.2-3.2h19
			c1.8,0,3.2,1.4,3.2,3.2v29.2c0,1.8-1.4,3.2-3.2,3.2h-19c-1.8,0-3.2-1.4-3.2-3.2v-1.2c0-0.4-0.3-0.7-0.7-0.7h-0.7
			c-0.4,0-0.7,0.3-0.7,0.7v1.4c0,2.8,2.3,5.2,5.2,5.2h19.5c2.8,0,5.2-2.3,5.2-5.2V5.2C40.3,2.3,38,0,35.2,0z"/>
		<circle cx="34.5" cy="21.1" r="1.5"/>
	</g>
</g>
<path class="st0" d="M26.2,23.9L18,15.8c-0.5-0.5-1-0.7-1.6-0.8c-1.5,0.1-2.8,1.3-2.8,2.9v3v0.4v10.1v0.4v2.2c0,1.5,1.2,2.8,2.8,2.9
	c0.6-0.1,1.2-0.3,1.6-0.8l8.1-8.1C27.3,26.9,27.3,25.1,26.2,23.9z"/>
<path class="st0" d="M15.3,30.7H5.1c-2.8,0-5.1-2.3-5.1-5.1v0c0-2.8,2.3-5.1,5.1-5.1h10.2c2.8,0,5.1,2.3,5.1,5.1v0
	C20.4,28.4,18.1,30.7,15.3,30.7z"/>
</svg>
