<?xml version="1.0" encoding="utf-8"?>
<!-- Generator: Adobe Illustrator 21.0.0, SVG Export Plug-In . SVG Version: 6.00 Build 0)  -->
<svg version="1.1" id="Layer_1" xmlns="http://www.w3.org/2000/svg" xmlns:xlink="http://www.w3.org/1999/xlink" x="0px" y="0px"
	 viewBox="0 0 216.8 257.2" style="enable-background:new 0 0 216.8 257.2;" xml:space="preserve">
<style type="text/css">
	.st0{fill:#F25268;}
</style>
<g>
	<path class="st0" d="M168.6,197.1L168.6,197.1c-4.1-7.9-17.1-13.7-32.5-13.7c0,0-3.3-0.2-8.3,0.6c-3,0.4-5.9,1.1-8.5,1.9
		c-5.5,1.7-11.5,4.5-17,9.2c-5.4-4.6-11.4-7.5-16.8-9.2c-2.6-0.9-5.5-1.5-8.5-2c0,0,0,0,0,0c-0.1,0-0.2,0-0.3,0
		c-4.9-0.7-8.1-0.6-8.1-0.6c-15.4,0-28.4,5.8-32.5,13.7l0,0c-0.9,1.6-1.3,3.4-1.4,5.1c0,0.1,0,0.2,0,0.2c0,0.8,0.1,1.5,0.2,2.3
		c4.2,22.1,64.3,50.9,67.3,52.4v0.1c0,0,0,0,0.1,0c0,0,0.1,0,0.1,0v-0.1c3-1.4,63.1-30.3,67.3-52.4c0.2-0.7,0.2-1.5,0.2-2.3
		c0-0.1,0-0.2,0-0.2C169.9,200.5,169.5,198.7,168.6,197.1z"/>
	<path class="st0" d="M130.2,158c-2.4-16.9,9.9-32.1,46.2-48.8c47.3-21.8,39.9-49.3,39.9-51.5C216.3,44.4,198.2,0,110.8,0
		C51.8,0,7.2,32.5,1.8,47.9s0.7,36.3,24.3,31.8c23.5-4.5,19-21.1,35.3-33.5c19-14.5,36.8-13.5,49.5-13c13.4,0.5,34.3,7.3,40,21.8
		c4,10,5.2,26.8-33.9,45.4c-0.3,0.2-0.7,0.3-1,0.5C59.6,132.4,66.1,158,66.1,158s3.2,11.9,35.4,10.1S130.2,158,130.2,158z"/>
</g>
</svg>
