<?xml version="1.0" encoding="utf-8"?>
<!-- Generator: Adobe Illustrator 21.0.0, SVG Export Plug-In . SVG Version: 6.00 Build 0)  -->
<svg version="1.1" id="Layer_1" xmlns="http://www.w3.org/2000/svg" xmlns:xlink="http://www.w3.org/1999/xlink" x="0px" y="0px"
	 viewBox="0 0 299 308.4" style="enable-background:new 0 0 299 308.4;" xml:space="preserve">
<style type="text/css">
	.st0{fill:#FFFFFF;}
	.st1{font-family:'MyriadPro-Regular';}
	.st2{font-size:77.5024px;}
</style>
<g>
	<path d="M273.7,43.3L273.7,43.3C265.8,18.3,241,0,211.6,0c0,0-6.4-0.5-15.8,1.8C190,3.2,184.6,5.3,179.6,8
		c-10.4,5.3-22,14.2-32.5,29C136.8,22.4,125.4,13.5,115,8.2c-5-2.7-10.5-4.8-16.3-6.2c0,0,0,0-0.1,0c-0.2,0-0.4-0.1-0.6-0.1
		C88.8-0.4,82.6,0,82.6,0c-29.4,0-54.2,18.2-62,43.2l0,0C18.8,48.4,18,53.8,18,59.4c0,0.3,0,0.5,0,0.8c0,2.4,0.2,4.8,0.5,7.1
		C26.5,136.7,141.3,227.5,147,232v0.2c0,0,0,0,0.1-0.1c0.1,0.1,0.1,0.1,0.1,0.1V232c5.7-4.5,120.5-95.3,128.6-164.7
		c0.3-2.3,0.5-4.7,0.5-7.1c0-0.3,0-0.5,0-0.8C276.2,53.8,275.4,48.4,273.7,43.3z"/>
	<path class="st0" d="M143.7,196.1c-8.9,0-16.8,4-22.1,10.3c0,0,0.1,0.1,0.1,0.1c13.9,12.3,23.9,20.3,25.5,21.5v0.2c0,0,0,0,0.1-0.1
		c0.1,0.1,0.1,0.1,0.1,0.1v-0.2c1.4-1.1,9.5-7.5,21-17.6c0,0,0.1,0,0.1-0.1C163.6,201.8,154.3,196.1,143.7,196.1z"/>
	<path class="st0" d="M204.2,137.1c30.2-13.9,33.9-30.6,33.9-38.6c0-2.5-0.4-4.2-0.4-4.6c0-11.2-15.2-48.4-88.6-48.4
		c-49.5,0-87,27.3-91.5,40.2c-1,2.9-1.5,6-1.5,9c0,10.7,6.5,20.6,21.9,17.7c19.8-3.8,16-17.7,29.6-28.1c16-12.2,30.9-11.3,41.6-10.9
		c11.3,0.4,28.8,6.1,33.6,18.3c0.8,2.1,1.5,4.6,1.6,7.5c0.1,8.2-5.6,19-30,30.6c-0.3,0.1-0.6,0.3-0.8,0.4c-38.7,21.7-42.1,40-42,46
		c0,1.3,0.2,2.1,0.2,2.1s2.7,10,29.8,8.5c21.7-1.2,24-5.9,24.1-7.8c0-0.5-0.1-0.7-0.1-0.7c-0.2-1.3-0.3-2.5-0.2-3.8
		C165.4,161.6,176.4,149.9,204.2,137.1z"/>
</g>
<text transform="matrix(1 0 0 1 0 289.0236)" class="st1 st2">About Us</text>
</svg>
