<?xml version="1.0" encoding="utf-8"?>
<!-- Generator: Adobe Illustrator 21.0.0, SVG Export Plug-In . SVG Version: 6.00 Build 0)  -->
<svg version="1.1" id="Layer_1" xmlns="http://www.w3.org/2000/svg" xmlns:xlink="http://www.w3.org/1999/xlink" x="0px" y="0px"
	 viewBox="0 0 250 250" style="enable-background:new 0 0 250 250;" xml:space="preserve">
<style type="text/css">
	.st0{fill:#F25268;}
</style>
<g>
	<path class="st0" d="M201,189.9L201,189.9c-5.7-7.9-23.6-13.7-44.8-13.7c0,0-4.6-0.2-11.4,0.6c-4.2,0.4-8.1,1.1-11.7,1.9
		c-7.5,1.7-15.9,4.5-23.4,9.2c-7.5-4.6-15.7-7.5-23.2-9.2c-3.6-0.9-7.6-1.5-11.8-2c0,0,0,0,0,0c-0.1,0-0.3,0-0.4,0
		c-6.7-0.7-11.2-0.6-11.2-0.6c-21.2,0-39.1,5.8-44.8,13.7l0,0c-1.2,1.6-1.8,3.4-1.9,5.1c0,0.1,0,0.2,0,0.2c0,0.8,0.1,1.5,0.3,2.3
		c5.8,22.1,88.7,50.9,92.8,52.4v0.1c0,0,0,0,0.1,0c0.1,0,0.1,0,0.1,0v-0.1c4.1-1.4,87-30.3,92.8-52.4c0.2-0.7,0.3-1.5,0.3-2.3
		c0-0.1,0-0.2,0-0.2C202.9,193.3,202.3,191.6,201,189.9z"/>
	<path class="st0" d="M133.5,155.5c-2.4-16.9,9.6-32.6,46.2-48.8c39.6-17.6,62.7-37.2,62.7-59.8C242.4,21.6,207.3,0,114,0
		C71.1,0,7.2,16,1.8,31.4s6.5,39.5,30,35c23.5-4.5,17.3-14.1,34.5-25c13.4-8.5,28.5-12.7,41.3-12.3c13.4,0.5,38.3,1,49,22.8
		c4.8,9.6,2.8,27.3-36.4,45.9c-0.3,0.2-0.7,0.3-1,0.5c-56.4,31.6-49.8,57.2-49.8,57.2s3.2,11.9,35.4,10.1S133.5,155.5,133.5,155.5z"
		/>
</g>
</svg>
