<?xml version="1.0" encoding="utf-8"?>
<!-- Generator: Adobe Illustrator 21.0.0, SVG Export Plug-In . SVG Version: 6.00 Build 0)  -->
<svg version="1.1" id="Layer_1" xmlns="http://www.w3.org/2000/svg" xmlns:xlink="http://www.w3.org/1999/xlink" x="0px" y="0px"
	 viewBox="0 0 39.8 41" style="enable-background:new 0 0 39.8 41;" xml:space="preserve">
<style type="text/css">
	.st0{fill:#AAFFBD;}
	.st1{fill:none;stroke:#000000;stroke-miterlimit:10;}
</style>
<path class="st0" d="M30.7,5.7h-1.2V4.4c0-0.7-0.6-1.3-1.3-1.3c-0.7,0-1.3,0.6-1.3,1.3v1.3h-1.3c-0.7,0-1.3,0.6-1.3,1.3
	c0,0.7,0.6,1.3,1.3,1.3h1.3v1.2c0,0.7,0.6,1.3,1.3,1.3c0.7,0,1.3-0.6,1.3-1.3V8.4h1.2c0.7,0,1.3-0.6,1.3-1.3
	C32,6.3,31.4,5.7,30.7,5.7z"/>
<g>
	<circle class="st0" cx="18.5" cy="18.5" r="6"/>
	<path class="st0" d="M25,25.8H12c-1.5,0-2.7,1.2-2.7,2.7v6.1c0,1.5,1.2,2.7,2.7,2.7H25c1.5,0,2.7-1.2,2.7-2.7v-6.1
		C27.8,27,26.6,25.8,25,25.8z"/>
</g>
<path d="M5.1,20H0.9C0.4,20,0,19.6,0,19.1v-0.9c0-0.5,0.4-0.9,0.9-0.9h4.3c0.5,0,0.9,0.4,0.9,0.9v0.9C6,19.6,5.6,20,5.1,20z"/>
<path d="M5.1,10.8H0.9C0.4,10.8,0,10.4,0,10V9c0-0.5,0.4-0.9,0.9-0.9h4.3C5.6,8.2,6,8.6,6,9V10C6,10.4,5.6,10.8,5.1,10.8z"/>
<path d="M5.1,28.6H0.9c-0.5,0-0.9-0.4-0.9-0.9v-0.9C0,26.4,0.4,26,0.9,26h4.3C5.6,26,6,26.4,6,26.9v0.9C6,28.3,5.6,28.6,5.1,28.6z"
	/>
<path d="M31.2,37.7c-0.8,0.7-1.8,1.1-2.8,1.1H8.6c-2.5,0-4.6-2.3-4.6-5.1V7.3c0-2.8,2.1-5.1,4.6-5.1h19.8c2,0,3.7,1.4,4.3,3.3h2.2
	C34.4,2.4,32,0,29,0H8C4.7,0,2,3,2,6.6v27.7C2,38,4.7,41,8,41h21c2.2,0,4.1-1.3,5.2-3.3H31.2z"/>
<g>
	<g>
		<path d="M32.1,29.1l2.8,0.6c0.8,0.2,1.7-0.6,1.9-1.7l2.9-14c0.2-1.1-0.3-2.2-1.1-2.3l-2.8-0.6c-0.8-0.2-1.7,0.6-1.9,1.7l-2.9,14
			C30.7,27.9,31.2,29,32.1,29.1z M34.6,12.9c0.1-0.5,0.5-0.9,0.9-0.8l2.9,0.6c0.4,0.1,0.6,0.6,0.5,1.1l-2.8,13.7
			c-0.1,0.5-0.5,0.9-0.9,0.8l-2.9-0.6c-0.4-0.1-0.6-0.6-0.5-1.1L34.6,12.9z"/>
		<path d="M31.7,25.6l4.9,1c0.3,0.1,0.4,0.3,0.4,0.6l0,0c-0.1,0.3-0.3,0.4-0.6,0.4l-4.9-1c-0.3-0.1-0.4-0.3-0.4-0.6l0,0
			C31.2,25.7,31.5,25.5,31.7,25.6z"/>
		<path d="M32.1,23.6l4.9,1c0.3,0.1,0.4,0.3,0.4,0.6v0c-0.1,0.3-0.3,0.4-0.6,0.4l-4.9-1c-0.3-0.1-0.4-0.3-0.4-0.6l0,0
			C31.6,23.8,31.9,23.6,32.1,23.6z"/>
		<path d="M32.5,21.7l4.9,1c0.3,0.1,0.4,0.3,0.4,0.6v0c-0.1,0.3-0.3,0.4-0.6,0.4l-4.9-1c-0.3-0.1-0.4-0.3-0.4-0.6l0,0
			C32,21.8,32.3,21.6,32.5,21.7z"/>
		<path class="st1" d="M35.1,30.9l-3.8-0.8c-0.2,0-0.3,0.1-0.4,0.4c0,0.1,0,0.3,0,0.4l1.3,3.2c0.1,0.2,0.3,0.3,0.5,0.1l2.5-2.5
			c0.1-0.1,0.2-0.4,0.2-0.6C35.3,31,35.3,30.9,35.1,30.9z"/>
	</g>
	<path d="M37.5,9.8c-0.5-0.1-1.1,0.2-1.2,0.8l2,0.4C38.4,10.4,38.1,9.9,37.5,9.8z"/>
</g>
</svg>
