<?xml version="1.0" encoding="utf-8"?>
<!-- Generator: Adobe Illustrator 21.0.0, SVG Export Plug-In . SVG Version: 6.00 Build 0)  -->
<svg version="1.1" id="Layer_1" xmlns="http://www.w3.org/2000/svg" xmlns:xlink="http://www.w3.org/1999/xlink" x="0px" y="0px"
	 viewBox="0 0 51 50" style="enable-background:new 0 0 51 50;" xml:space="preserve">
<style type="text/css">
	.st0{fill:#E6E7E8;stroke:#231F20;stroke-linecap:round;stroke-miterlimit:10;}
	.st1{fill:none;}
</style>
<g>
	<path class="st0" d="M25.7,1.2C12.3,1.2,1.5,12,1.5,25.3s10.8,24.2,24.2,24.2c13.3,0,24.2-10.8,24.2-24.2S39,1.2,25.7,1.2z
		 M10,11.3c6.4,0,6.4,10,0,10C3.6,21.3,3.6,11.3,10,11.3z M10.3,38.7c-6.4,0-6.4-10,0-10C16.8,28.7,16.8,38.7,10.3,38.7z M24.3,47.7
		c-6.4,0-6.4-10,0-10C30.8,37.7,30.8,47.7,24.3,47.7z M24.7,12.7c-6.4,0-6.4-10,0-10C31.1,2.7,31.1,12.7,24.7,12.7z M40,11.3
		c6.4,0,6.4,10,0,10C33.6,21.3,33.6,11.3,40,11.3z M40.3,38.7c-6.4,0-6.4-10,0-10C46.8,28.7,46.8,38.7,40.3,38.7z"/>
	<polygon class="st0" points="31,15.5 19.5,15.5 13.7,25.5 19.5,35.5 31,35.5 36.8,25.5 	"/>
	<g>
		<path id="_x3C_Slice_x3E_" class="st1" d="M0,45.2V4.8C0,2.2,2.2,0,4.8,0h41.3C48.8,0,51,2.2,51,4.8v40.3c0,2.7-2.2,4.8-4.8,4.8
			H4.8C2.2,50,0,47.8,0,45.2z"/>
	</g>
</g>
</svg>
