<?xml version="1.0" encoding="utf-8"?>
<!-- Generator: Adobe Illustrator 21.0.0, SVG Export Plug-In . SVG Version: 6.00 Build 0)  -->
<svg version="1.1" id="Layer_1" xmlns="http://www.w3.org/2000/svg" xmlns:xlink="http://www.w3.org/1999/xlink" x="0px" y="0px"
	 viewBox="0 0 294.4 256.3" style="enable-background:new 0 0 294.4 256.3;" xml:space="preserve">
<style type="text/css">
	.st0{stroke:#11FF23;stroke-width:7;stroke-miterlimit:10;}
	.st1{fill:#FFFFFF;}
	.st2{fill:#000CF9;}
	.st3{fill:#001EDF;}
</style>
<path class="st0" d="M286.7,138.4L158.2,7.9c-2.7-2.7-6.2-4.1-9.7-4.3c-4.3-0.5-8.8,0.9-12,4.2L7.7,138.3c-5.6,5.7-5.6,15.1,0,20.8
	v0c5.6,5.7,14.9,5.7,20.5,0l4.5-4.5h24.1v91.4c0,3.8,3,6.8,6.7,6.8h0.1h2.4h1c0,0,0,0,0,0h40.5c0,0,0,0,0,0h0.5c5,0,9.1-4.1,9.1-9.1
	v-3.4v-41.6c0-3.8,3-6.8,6.7-6.8h46.7c3.7,0,6.7,3.1,6.7,6.8v41.6v3.4c0,5,4.1,9.1,9.1,9.1h0.4h2.3h0.2h37.9h1.3h2.2h0.2
	c3.7,0,6.7-3.1,6.7-6.8v-2.3v-89.1h23.9l4.3,4.4c5.7,5.8,15.1,5.8,20.8,0C292.3,153.3,292.3,144,286.7,138.4z"/>
<g>
	<path class="st1" d="M168.9,152.8v18.1c0,2.7,2.2,4.9,4.9,4.9H191v-23H168.9z"/>
	<path class="st1" d="M210.6,129.2h-17.8V151h22.8v-16.9C215.5,131.4,213.3,129.2,210.6,129.2z"/>
	<path class="st1" d="M191,129.2h-17.2c-2.7,0-4.9,2.2-4.9,4.9V151H191V129.2z"/>
	<path class="st1" d="M192.7,175.8h17.8c2.7,0,4.9-2.2,4.9-4.9v-18.1h-22.8V175.8z"/>
	<polygon class="st2" points="192.7,129.2 191,129.2 191,151 168.9,151 168.9,152.8 191,152.8 191,175.8 192.7,175.8 192.7,152.8 
		215.5,152.8 215.5,151 192.7,151 	"/>
	<path class="st1" d="M78.9,152.1v18.4c0,2.8,2.3,5,5,5h17.5v-23.4H78.9z"/>
	<path class="st1" d="M121.3,128.1h-18.1v22.2h23.1v-17.2C126.3,130.4,124,128.1,121.3,128.1z"/>
	<path class="st1" d="M101.4,128.1H83.9c-2.8,0-5,2.3-5,5v17.2h22.5V128.1z"/>
	<path class="st1" d="M103.1,175.5h18.1c2.8,0,5-2.3,5-5v-18.4h-23.1V175.5z"/>
	<polygon class="st3" points="103.1,128.1 101.4,128.1 101.4,150.3 78.9,150.3 78.9,152.1 101.4,152.1 101.4,175.5 103.1,175.5 
		103.1,152.1 126.3,152.1 126.3,150.3 103.1,150.3 	"/>
</g>
</svg>
