<?xml version="1.0" encoding="utf-8"?>
<!-- Generator: Adobe Illustrator 21.0.0, SVG Export Plug-In . SVG Version: 6.00 Build 0)  -->
<svg version="1.1" id="Layer_1" xmlns="http://www.w3.org/2000/svg" xmlns:xlink="http://www.w3.org/1999/xlink" x="0px" y="0px"
	 viewBox="0 0 167.9 118.6" style="enable-background:new 0 0 167.9 118.6;" xml:space="preserve">
<style type="text/css">
	.st0{fill:#9AFF33;}
</style>
<path d="M159.9,0H8C3.6,0,0,3.6,0,8v79.7c0,4.4,3.6,8,8,8h70.9c-1.3,1.3-2.2,3.2-2.2,5.2v7.8H55.2c-2.7,0-5,2.2-5,5s2.2,5,5,5h57.7
	c2.7,0,5-2.2,5-5s-2.2-5-5-5H91.2v-7.8c0-2-0.8-3.9-2.2-5.2h70.9c4.4,0,8-3.6,8-8V8C167.9,3.6,164.3,0,159.9,0z"/>
<g>
	<rect x="29.6" y="25.4" class="st0" width="27" height="4.3"/>
	<rect x="16.8" y="10" class="st0" width="28.6" height="11.9"/>
	<rect x="29.6" y="33" class="st0" width="27" height="4.3"/>
	<rect x="29.6" y="40.7" class="st0" width="27" height="4.3"/>
	<rect x="16.8" y="48.4" class="st0" width="28.6" height="11.9"/>
	<rect x="29.6" y="63.1" class="st0" width="27" height="4.3"/>
	<rect x="29.6" y="70.7" class="st0" width="27" height="4.3"/>
	<rect x="95" y="19.4" class="st0" width="28.6" height="11.9"/>
	<rect x="108.3" y="35.2" class="st0" width="27" height="4.3"/>
	<rect x="108.3" y="42.8" class="st0" width="27" height="4.3"/>
	<rect x="108.3" y="50.5" class="st0" width="27" height="4.3"/>
	<rect x="108.3" y="58.2" class="st0" width="27" height="4.3"/>
	<rect x="108.3" y="65.8" class="st0" width="27" height="4.3"/>
	<rect x="108.3" y="73.5" class="st0" width="27" height="4.3"/>
</g>
<path d="M157.9,3.7H10c-3.4,0-6.1,2.7-6.1,6.1v77.6c0,3.4,2.7,6.1,6.1,6.1h147.8c3.4,0,6.1-2.7,6.1-6.1V9.8
	C164,6.4,161.2,3.7,157.9,3.7z M16.1,10.1h28.6V22H16.1V10.1z M16.1,48.4h28.6v11.9H16.1V48.4z M55.9,75.1h-27v-4.3h27V75.1z
	 M55.9,67.4h-27v-4.3h27V67.4z M55.9,45h-27v-4.3h27V45z M55.9,37.4h-27v-4.3h27V37.4z M55.9,29.7h-27v-4.3h27V29.7z M94.3,19.5
	h28.6v11.9H94.3V19.5z M134.6,77.8h-27v-4.3h27V77.8z M134.6,70.2h-27v-4.3h27V70.2z M134.6,62.5h-27v-4.3h27V62.5z M134.6,54.8h-27
	v-4.3h27V54.8z M134.6,47.2h-27v-4.3h27V47.2z M134.6,39.5h-27v-4.3h27V39.5z"/>
</svg>
